name rise49.8558peak67.6521fall70.3087.mot
datacolumns 19
datarows 20
range 1.94832200000000 1.97999400000000
endheader
time	ground_force1_vx	ground_force1_vy	ground_force1_vz	ground_force1_px	ground_force1_py	ground_force1_pz	ground_force2_vx	ground_force2_vy	ground_force2_vz	ground_force2_px	ground_force2_py	ground_force2_pz	ground_torque1_x	ground_torque1_y	ground_torque1_z	ground_torque2_x	ground_torque2_y	ground_torque2_z	
1.94832200000000	-9.40506000000000	42.23288100000000	-8.48032500000000	0.33986100000000	0.00000000000000	0.07794700000000	-60.87825600000000	790.92284700000005	-56.17944500000000	0.10622100000000	0.00000000000000	-0.10946300000000	0.00000000000000	-5.95794200000000	0.00000000000000	0.00000000000000	-22.51457400000000	0.00000000000000	
1.94998900000000	-10.31527400000000	49.38781400000000	-9.53303000000000	0.34430300000000	0.00000000000000	0.07886600000000	-61.21869200000000	788.08555500000000	-55.74344200000000	0.10536700000000	0.00000000000000	-0.10939900000000	0.00000000000000	-6.76198100000000	0.00000000000000	0.00000000000000	-22.41002800000000	0.00000000000000	
1.95166000000000	-11.04900700000000	56.60569300000000	-10.48813200000000	0.34843900000000	0.00000000000000	0.07970900000000	-61.56243700000000	785.17301899999995	-55.29310500000000	0.10452100000000	0.00000000000000	-0.10933100000000	0.00000000000000	-7.51160800000000	0.00000000000000	0.00000000000000	-22.30620100000000	0.00000000000000	
1.95332400000000	-11.58120600000000	63.79218600000000	-11.32304100000000	0.35230700000000	0.00000000000000	0.08048700000000	-61.90994600000000	782.18548299999998	-54.82863400000000	0.10368500000000	0.00000000000000	-0.10926000000000	0.00000000000000	-8.19000800000000	0.00000000000000	0.00000000000000	-22.20328400000000	0.00000000000000	
1.95498900000000	-11.89728900000000	70.87700000000000	-12.02274000000000	0.35594000000000	0.00000000000000	0.08120700000000	-62.26165000000000	779.12306599999999	-54.35023400000000	0.10285900000000	0.00000000000000	-0.10918500000000	0.00000000000000	-8.78543400000000	0.00000000000000	0.00000000000000	-22.10146000000000	0.00000000000000	
1.95666000000000	-11.99297500000000	77.81593200000000	-12.57988300000000	0.35936400000000	0.00000000000000	0.08187900000000	-62.61794500000000	775.98575600000004	-53.85811300000000	0.10204300000000	0.00000000000000	-0.10910700000000	0.00000000000000	-9.29140700000000	0.00000000000000	0.00000000000000	-22.00090100000000	0.00000000000000	
1.95832200000000	-11.87329500000000	84.59043800000001	-12.99425500000000	0.36260300000000	0.00000000000000	0.08250700000000	-62.97919100000000	772.77341500000000	-53.35248300000000	0.10123800000000	0.00000000000000	-0.10902500000000	0.00000000000000	-9.70644100000000	0.00000000000000	0.00000000000000	-21.90177000000000	0.00000000000000	
1.95999400000000	-11.55101000000000	91.20514500000000	-13.27173800000000	0.36567500000000	0.00000000000000	0.08309600000000	-63.34570800000000	769.48577000000000	-52.83356100000000	0.10044500000000	0.00000000000000	-0.10894000000000	0.00000000000000	-10.03341500000000	0.00000000000000	0.00000000000000	-21.80421900000000	0.00000000000000	
1.96166000000000	-11.04466500000000	97.68388500000000	-13.42296200000000	0.36859700000000	0.00000000000000	0.08365100000000	-63.71777400000000	766.12241500000005	-52.30156500000000	0.09966300000000	0.00000000000000	-0.10885100000000	0.00000000000000	-10.27868300000000	0.00000000000000	0.00000000000000	-21.70838900000000	0.00000000000000	
1.96332500000000	-10.37650800000000	104.06481900000000	-13.46179300000000	0.37138300000000	0.00000000000000	0.08417600000000	-64.09562000000000	762.68281000000002	-51.75671800000000	0.09889400000000	0.00000000000000	-0.10875800000000	0.00000000000000	-10.45106000000000	0.00000000000000	0.00000000000000	-21.61440800000000	0.00000000000000	
1.96499200000000	-9.57046000000000	110.39523300000000	-13.40382900000000	0.37404300000000	0.00000000000000	0.08467200000000	-64.47942800000000	759.16628400000002	-51.19925000000000	0.09813800000000	0.00000000000000	-0.10866200000000	0.00000000000000	-10.56077100000000	0.00000000000000	0.00000000000000	-21.52239000000000	0.00000000000000	
1.96665800000000	-8.65030500000000	116.72646500000000	-13.26501100000000	0.37658900000000	0.00000000000000	0.08514400000000	-64.86932700000000	755.57203300000003	-50.62939100000000	0.09739500000000	0.00000000000000	-0.10856300000000	0.00000000000000	-10.61847400000000	0.00000000000000	0.00000000000000	-21.43243700000000	0.00000000000000	
1.96832200000000	-7.63819200000000	123.10936599999999	-13.06045100000000	0.37903000000000	0.00000000000000	0.08559300000000	-65.26539000000000	751.89912500000003	-50.04737800000000	0.09666600000000	0.00000000000000	-0.10845900000000	0.00000000000000	-10.63440200000000	0.00000000000000	0.00000000000000	-21.34463400000000	0.00000000000000	
1.96998900000000	-6.55351800000000	129.59053499999999	-12.80351800000000	0.38137200000000	0.00000000000000	0.08602100000000	-65.66763200000000	748.14650300000005	-49.45345200000000	0.09595200000000	0.00000000000000	-0.10835200000000	0.00000000000000	-10.61770000000000	0.00000000000000	0.00000000000000	-21.25905400000000	0.00000000000000	
1.97165900000000	-5.41222400000000	136.20951400000001	-12.50522500000000	0.38362400000000	0.00000000000000	0.08643100000000	-66.07600600000001	744.31298500000003	-48.84785800000000	0.09525200000000	0.00000000000000	-0.10824100000000	0.00000000000000	-10.57594200000000	0.00000000000000	0.00000000000000	-21.17575000000000	0.00000000000000	
1.97332500000000	-4.22645800000000	142.99695100000000	-12.17390100000000	0.38579000000000	0.00000000000000	0.08682200000000	-66.49040100000001	740.39727400000004	-48.23084800000000	0.09456800000000	0.00000000000000	-0.10812600000000	0.00000000000000	-10.51486500000000	0.00000000000000	0.00000000000000	-21.09476200000000	0.00000000000000	
1.97498900000000	-3.00459700000000	149.97373099999999	-11.81511400000000	0.38787600000000	0.00000000000000	0.08719700000000	-66.91064000000000	736.39796100000001	-47.60267800000000	0.09390100000000	0.00000000000000	-0.10800800000000	0.00000000000000	-10.43828400000000	0.00000000000000	0.00000000000000	-21.01611100000000	0.00000000000000	
1.97666200000000	-1.75153300000000	157.15094099999999	-11.43183100000000	0.38988700000000	0.00000000000000	0.08755800000000	-67.33647600000000	732.31353000000001	-46.96360900000000	0.09324900000000	0.00000000000000	-0.10788500000000	0.00000000000000	-10.34816300000000	0.00000000000000	0.00000000000000	-20.93980100000000	0.00000000000000	
1.97832600000000	-0.46917300000000	164.53052700000001	-11.02473100000000	0.39182500000000	0.00000000000000	0.08790400000000	-67.76759100000000	728.14236400000004	-46.31390800000000	0.09261400000000	0.00000000000000	-0.10775900000000	0.00000000000000	-10.24482200000000	0.00000000000000	0.00000000000000	-20.86581700000000	0.00000000000000	
1.97999400000000	0.84293000000000	172.10647299999999	-10.59264000000000	0.39369600000000	0.00000000000000	0.08823600000000	-68.20359600000000	723.88275499999997	-45.65385000000000	0.09199700000000	0.00000000000000	-0.10762900000000	0.00000000000000	-10.12722100000000	0.00000000000000	0.00000000000000	-20.79412600000000	0.00000000000000	
